<?xml version="1.0" encoding="UTF-8" standalone="no"?>
<!-- Created with Inkscape (http://www.inkscape.org/) -->

<svg
   xmlns:dc="http://purl.org/dc/elements/1.1/"
   xmlns:cc="http://creativecommons.org/ns#"
   xmlns:rdf="http://www.w3.org/1999/02/22-rdf-syntax-ns#"
   xmlns:svg="http://www.w3.org/2000/svg"
   xmlns="http://www.w3.org/2000/svg"
   xmlns:sodipodi="http://sodipodi.sourceforge.net/DTD/sodipodi-0.dtd"
   xmlns:inkscape="http://www.inkscape.org/namespaces/inkscape"
   width="1000"
   height="351.94223"
   viewBox="0 0 100 35.194224"
   version="1.1"
   id="svg8"
   inkscape:version="0.92.3 (2405546, 2018-03-11)"
   sodipodi:docname="A.svg">
  <defs
     id="defs2" />
  <sodipodi:namedview
     id="base"
     pagecolor="#ffffff"
     bordercolor="#666666"
     borderopacity="1.0"
     inkscape:pageopacity="0.0"
     inkscape:pageshadow="2"
     inkscape:zoom="0.30656934"
     inkscape:cx="191.09454"
     inkscape:cy="610.57231"
     inkscape:document-units="px"
     inkscape:current-layer="layer1"
     showgrid="false"
     units="px"
     fit-margin-top="0"
     fit-margin-left="0"
     fit-margin-right="0"
     fit-margin-bottom="0" />
  <metadata
     id="metadata5">
    <rdf:RDF>
      <cc:Work
         rdf:about="">
        <dc:format>image/svg+xml</dc:format>
        <dc:type
           rdf:resource="http://purl.org/dc/dcmitype/StillImage" />
        <dc:title></dc:title>
      </cc:Work>
    </rdf:RDF>
  </metadata>
  <g
     inkscape:label="Layer 1"
     inkscape:groupmode="layer"
     id="layer1"
     transform="translate(-20.890546,-82.114976)">
    <g
       transform="matrix(1.5396222,0,0,1.5396222,20.890546,82.088802)"
       style="fill:#000000;fill-rule:nonzero"
       id="g38">
      <path
         inkscape:connector-curvature="0"
         d="M 25.089,6.709 C 24.619,6.213 24.115,5.911 23.767,5.911 H 23.454 V 5.636 h 0.261 c 0.121,0 1.548,0.058 1.687,0.058 0.227,0 0.886,-0.058 1.026,-0.058 h 0.278 l 6.618,7.345 V 7.187 c 0,-0.921 -0.4,-1.276 -1.407,-1.276 H 31.621 V 5.636 h 0.313 c 0.035,0 1.529,0.058 1.65,0.058 0.173,0 1.164,-0.058 1.355,-0.058 h 0.192 l 0.017,0.275 c -0.922,0.071 -1.165,0.32 -1.165,1.135 v 9.16 h -0.312 l -7.904,-8.77 v 6.6 c 0,1.384 0.314,1.756 1.46,1.756 h 0.295 v 0.296 h -0.331 c -0.243,0 -1.441,-0.06 -1.72,-0.06 -0.156,0 -1.269,0.06 -1.512,0.06 H 23.68 v -0.296 c 1.166,-0.107 1.41,-0.302 1.41,-1.153 v -7.93 z m 11.98,0.106 c 0,-0.691 -0.261,-0.904 -1.079,-0.904 H 35.73 V 5.636 h 0.678 c 0.47,0 3.008,0.058 3.026,0.058 0.364,0 2.777,-0.058 3.296,-0.058 h 0.695 L 43.46,7.913 H 43.19 C 43.137,6.725 42.61,6.246 41.395,6.246 h -2.43 v 4.026 h 2.1 c 0.816,0 1.268,-0.39 1.389,-1.225 l 0.31,0.018 v 3.178 H 42.471 C 42.333,11.25 41.829,10.86 40.614,10.86 h -1.666 v 3.672 c 0,0.603 0.296,0.905 0.885,0.905 h 1.736 c 1.126,0 1.944,-0.515 2.43,-1.58 h 0.314 l -0.731,2.23 c -0.505,0 -2.898,-0.058 -3.696,-0.058 -0.539,0 -3.13,0.04 -3.722,0.058 h -0.452 v -0.295 h 0.278 c 0.818,-0.017 1.08,-0.23 1.08,-0.923 V 6.815 Z m 16.701,9.41 h -0.487 l -1.984,-5.511 -2.035,5.512 h -0.47 L 45.4,6.975 C 45.14,6.265 44.895,5.982 44.443,5.895 v -0.26 h 0.296 c 0.191,0 1.149,0.059 1.375,0.059 0.191,0 1.182,-0.058 1.391,-0.058 h 0.314 v 0.275 c -0.505,0.019 -0.714,0.16 -0.714,0.443 0,0.16 0.052,0.39 0.14,0.639 L 49.628,13.55 50.985,9.81 50.098,7.294 C 49.715,6.213 49.384,5.93 48.548,5.911 V 5.636 h 0.28 c 0.243,0 1.496,0.058 1.793,0.058 0.242,0 1.495,-0.058 1.773,-0.058 h 0.417 v 0.275 h -0.417 c -0.574,0 -0.852,0.142 -0.852,0.443 0,0.16 0.07,0.444 0.174,0.727 l 2.314,6.522 1.827,-5.53 c 0.226,-0.709 0.33,-1.17 0.33,-1.453 0,-0.496 -0.243,-0.71 -0.782,-0.71 H 55.092 V 5.636 h 0.087 c 0.243,0 0.851,0.058 1.217,0.058 0.173,0 0.851,-0.058 1.18,-0.058 h 0.123 v 0.275 c -0.436,0.125 -0.66,0.443 -1.007,1.525 l -2.923,8.79 z m 4.01,-2.563 c 0.278,0.688 0.52,1.008 0.988,1.361 0.59,0.46 1.37,0.69 2.237,0.69 1.491,0 2.497,-0.796 2.497,-1.946 0,-0.85 -0.486,-1.31 -2.282,-2.175 C 59.48,10.742 59.046,10.318 58.682,9.964 58.145,9.38 57.92,8.85 57.92,8.142 c 0,-1.627 1.3,-2.704 3.265,-2.704 0.592,0 1.236,0.088 1.933,0.264 0.278,0.07 0.557,0.106 0.714,0.106 0.138,0 0.209,-0.035 0.26,-0.153 h 0.3 l 0.034,2.229 H 64.179 C 64.023,7.353 63.919,7.124 63.692,6.834 63.204,6.249 62.438,5.931 61.455,5.931 c -1.248,0 -2.064,0.601 -2.064,1.504 0,0.778 0.47,1.22 2.134,1.998 2.134,1.008 3.426,1.911 3.426,3.573 0,1.91 -1.537,3.2 -3.807,3.2 a 8.04,8.04 0 0 1 -1.838,-0.229 3.676,3.676 0 0 0 -0.624,-0.089 c -0.209,0 -0.277,0.036 -0.415,0.2 H 57.972 L 57.937,15.84 c -0.118,-0.7 -0.258,-1.398 -0.418,-2.09 L 57.78,13.661 Z M 3.97,9.732 c -0.262,0 -0.51,0.06 -0.73,0.168 -0.587,0.291 -0.957,0.89 -0.955,1.546 0,0.946 0.755,1.714 1.684,1.714 0.931,0 1.684,-0.768 1.684,-1.714 0,-0.947 -0.753,-1.715 -1.684,-1.715 z m 7.259,0 c -0.93,0 -1.685,0.767 -1.685,1.714 0,0.946 0.754,1.714 1.685,1.714 0.93,0 1.684,-0.768 1.684,-1.714 0,-0.947 -0.755,-1.715 -1.684,-1.715 z"
         id="path34" />
      <path
         inkscape:connector-curvature="0"
         d="m 18.47,14.875 c -1.862,0 -3.37,-1.535 -3.37,-3.43 0,-1.893 1.508,-3.428 3.37,-3.428 1.596,0 2.932,1.132 3.28,2.65 h -1.78 a 1.68,1.68 0 0 0 -1.5,-0.936 c -0.932,0 -1.686,0.768 -1.686,1.715 0,0.946 0.754,1.714 1.685,1.714 a 1.68,1.68 0 0 0 1.502,-0.94 l 1.783,-0.017 c -0.339,1.53 -1.68,2.672 -3.285,2.672 z m -7.241,0 C 9.376,14.875 7.873,13.353 7.86,11.47 L 7.82,5.454 h 1.704 l 0.01,3.228 c 0.499,-0.396 1.077,-0.665 1.695,-0.665 1.86,0 3.368,1.535 3.368,3.429 0,1.894 -1.509,3.429 -3.368,3.429 z m -5.546,0 -0.007,-0.859 c -0.382,0.389 -1.043,0.859 -1.824,0.859 -1.86,0 -3.251,-1.535 -3.251,-3.43 0,-1.893 1.508,-3.428 3.368,-3.428 0.29,0 0.573,0.037 0.843,0.108 1.453,0.38 2.526,1.723 2.526,3.32 v 0.01 l 0.02,3.42 H 5.682 Z M 11.229,0.017 C 5.027,0.017 0,5.134 0,11.446 c 0,6.312 5.027,11.43 11.229,11.43 6.2,0 11.228,-5.118 11.228,-11.43 0,-6.312 -5.028,-11.429 -11.228,-11.429 z"
         id="path36" />
    </g>
  </g>
</svg>
